#!OML:ASF H:\LiuWeirdWalks\Patient Classification 1\Patient 1\Session 1\male.ASF
:FULLY-SPECIFIED
:DEGREES
238
root 2.80685 16.781 21.7841 -1.61267 3.8905 10.2013
lowerback 10.5468 -4.21372 -14.2221
upperback 0.24861 -7.23711 1.58901
thorax -3.68637 -3.33666 10.581
lowerneck -11.6689 3.36699 11.3227
upperneck 4.04489 3.18731 -5.46995
head 3.35623 1.51884 -3.2907
rclavicle 3.75703e-014 1.03368e-014
rhumerus -51.0384 -16.7063 -50.7757
rradius 100.953
rwrist -20.3868
rhand -29.2883 9.39307
rfingers 7.12502
rthumb -2.6301 -20.5705
lclavicle 3.75703e-014 1.03368e-014
lhumerus 6.89314 -21.0161 31.1382
lradius 49.8351
lwrist 5.34938
lhand -5.85327 -3.33286
lfingers 7.12502
lthumb 19.9734 25.6606
rfemur -41.256 -5.92225 6.90583
rtibia 22.8347
rfoot -11.5466 -21.6001
rtoes -12.6568
lfemur 14.2771 3.02869 -28.3316
ltibia 22.021
lfoot -17.3328 23.0104
ltoes -17.7561
239
root 2.80029 16.6828 22.0282 -1.35442 4.20236 10.3018
lowerback 10.2693 -4.30009 -14.0469
upperback 0.154888 -7.28906 1.7427
thorax -3.61842 -3.36697 10.6285
lowerneck -11.7365 3.40358 11.1118
upperneck 4.01451 3.30577 -6.07216
head 3.37595 1.54511 -3.43627
rclavicle 8.31914e-014 -2.62396e-014
rhumerus -50.9079 -18.5581 -49.8101
rradius 98.7437
rwrist -19.9021
rhand -30.0965 10.6454
rfingers 7.12502
rthumb -3.41067 -19.3071
lclavicle 8.31914e-014 -2.62396e-014
lhumerus 6.57855 -16.7672 33.6128
lradius 48.8367
lwrist 2.44939
lhand -7.0309 -3.07042
lfingers 7.12502
lthumb 18.8411 26.0371
rfemur -41.4942 -5.85366 6.72606
rtibia 23.675
rfoot -11.4513 -20.9886
rtoes -12.4696
lfemur 14.347 2.92015 -28.2287
ltibia 23.2681
lfoot -18.1198 23.2257
ltoes -18.6528
240
root 2.78945 16.5942 22.2817 -1.09955 4.63241 10.2794
lowerback 9.94668 -4.43728 -13.7415
upperback -0.0162266 -7.39288 1.91766
thorax -3.60742 -3.41642 10.6289
lowerneck -11.4451 3.40162 10.9932
upperneck 3.80281 3.40059 -6.76768
head 3.28556 1.56063 -3.63103
rclavicle 1.09332e-014 -4.77083e-015
rhumerus -50.9053 -20.4536 -48.8032
rradius 96.1409
rwrist -19.3811
rhand -30.8207 11.772
rfingers 7.12502
rthumb -4.11004 -18.1681
lclavicle 1.09332e-014 -4.77083e-015
lhumerus 5.97536 -12.4847 36.3119
lradius 48.2681
lwrist -0.172707
lhand -8.77057 -2.74355
lfingers 7.12502
lthumb 17.1673 26.5181
rfemur -41.5374 -5.62056 6.53617
rtibia 24.5615
rfoot -11.4508 -20.4347
rtoes -12.4322
lfemur 14.3678 2.64316 -27.989
ltibia 24.6324
lfoot -18.6711 23.3501
ltoes -19.6679
241
root 2.7751 16.5033 22.5437 -0.882797 5.13075 10.1778
lowerback 9.5865 -4.6584 -13.3919
upperback -0.157106 -7.59892 2.0683
thorax -3.52328 -3.52581 10.5745
lowerneck -11.1243 3.47814 11.1194
upperneck 3.56522 3.56616 -7.51012
head 3.19544 1.6154 -3.87533
rclavicle 5.51627e-014 3.18055e-015
rhumerus -50.8004 -22.4021 -48.0143
rradius 93.2083
rwrist -18.9098
rhand -31.4374 12.5466
rfingers 7.12502
rthumb -4.70553 -17.3812
lclavicle 5.51627e-014 3.18055e-015
lhumerus 5.07863 -8.26029 38.8397
lradius 48.2513
lwrist -1.91704
lhand -11.2488 -2.26048
lfingers 7.12502
lthumb 14.7808 27.1924
rfemur -41.4732 -5.24769 6.33067
rtibia 25.499
rfoot -11.0127 -19.9848
rtoes -12.3004
lfemur 14.4412 2.26783 -27.6487
ltibia 26.0032
lfoot -18.9924 23.3636
ltoes -20.733
242
root 2.75948 16.4354 22.8113 -0.751538 5.63565 9.99208
lowerback 9.30289 -4.90286 -12.9894
upperback -0.300395 -7.84369 2.22001
thorax -3.48178 -3.65186 10.5014
lowerneck -10.8203 3.60013 11.3424
upperneck 3.4074 3.77434 -8.2026
head 3.13884 1.69739 -4.11698
rclavicle 5.96354e-016 2.06736e-014
rhumerus -50.7068 -24.3829 -47.2818
rradius 90.0634
rwrist -18.5714
rhand -31.8477 12.6907
rfingers 7.12502
rthumb -5.10169 -17.2279
lclavicle 5.96354e-016 2.06736e-014
lhumerus 3.8998 -4.40399 41.1306
lradius 48.7886
lwrist -2.40174
lhand -14.4527 -1.72479
lfingers 7.12502
lthumb 11.6925 27.9289
rfemur -41.2578 -4.78615 6.18351
rtibia 26.4438
rfoot -9.70649 -19.596
rtoes -11.9341
lfemur 14.6552 1.87528 -27.2061
ltibia 27.2355
lfoot -19.0067 23.2512
ltoes -21.7991
